<svg xmlns="http://www.w3.org/2000/svg" xmlns:xlink="http://www.w3.org/1999/xlink" width="159.945" height="29.342" viewBox="0 0 159.945 29.342">
  <defs>
    <style>
      .cls-1 {
        fill-rule: evenodd;
        fill: url(#linear-gradient);
      }

      .cls-2 {
        fill: #fff;
      }
    </style>
    <linearGradient id="linear-gradient" x1="0.185" y1="1" x2="0.706" gradientUnits="objectBoundingBox">
      <stop offset="0" stop-color="#fff" stop-opacity="0"/>
      <stop offset="0.383" stop-color="#efefef"/>
      <stop offset="0.76" stop-color="#adadad"/>
      <stop offset="1" stop-color="#6e6e6e"/>
    </linearGradient>
  </defs>
  <g id="codveo-logo" transform="translate(-19.77 -369.55)">
    <path id="Path_1" data-name="Path 1" class="cls-1" d="M37.713,401.5H28.49L45.22,384.79h9.22Z" transform="translate(-6.209 -10.852)"/>
    <path id="Path_2" data-name="Path 2" class="cls-1" d="M36.5,369.55h12.01L31.78,386.26H19.77Z"/>
    <g id="Group_1" data-name="Group 1" transform="translate(34.116 389.295)">
      <path id="Path_3" data-name="Path 3" class="cls-2" d="M70.267,438.12a.7.7,0,0,1,.334.086.617.617,0,0,1,.251.251.693.693,0,0,1,.092.34.671.671,0,0,1-.089.337.655.655,0,0,1-.251.251.681.681,0,0,1-.674,0,.655.655,0,0,1-.251-.251.671.671,0,0,1-.089-.337.684.684,0,0,1,.092-.34.617.617,0,0,1,.251-.251A.73.73,0,0,1,70.267,438.12Zm0,.132a.562.562,0,0,0-.268.069.486.486,0,0,0-.2.2.559.559,0,0,0-.075.274.537.537,0,0,0,.072.271.521.521,0,0,0,.2.2.545.545,0,0,0,.541,0,.521.521,0,0,0,.2-.2.537.537,0,0,0,.072-.271.551.551,0,0,0-.075-.274.521.521,0,0,0-.2-.2A.579.579,0,0,0,70.267,438.252Zm-.305.91v-.717h.147c.135,0,.213,0,.23,0a.265.265,0,0,1,.112.029.171.171,0,0,1,.066.069.213.213,0,0,1,.026.1.187.187,0,0,1-.052.132.227.227,0,0,1-.144.069.19.19,0,0,1,.049.026.342.342,0,0,1,.049.055c.006.006.023.037.052.086l.084.144H70.4l-.06-.118a.486.486,0,0,0-.1-.147.162.162,0,0,0-.1-.032H70.1v.3Zm.144-.409h.06a.8.8,0,0,0,.155-.009.086.086,0,0,0,.049-.035.1.1,0,0,0,0-.109.125.125,0,0,0-.049-.035.709.709,0,0,0-.155-.012h-.06Z" transform="translate(-69.59 -438.12)"/>
    </g>
    <g id="Group_4" data-name="Group 4" transform="translate(46.434 378.672)">
      <g id="Group_2" data-name="Group 2">
        <path id="Path_4" data-name="Path 4" class="cls-2" d="M211.176,407.209a6.729,6.729,0,0,1-.334,2.065,6.322,6.322,0,0,1-.973,1.889,5.322,5.322,0,0,1-1.546,1.391,3.938,3.938,0,0,1-2.053.538h-12.16a3.854,3.854,0,0,1-1.947-.608,5.345,5.345,0,0,1-1.454-1.391,6.465,6.465,0,0,1-.919-1.863,6.559,6.559,0,0,1,.014-4.089,6.357,6.357,0,0,1,.973-1.889,5.321,5.321,0,0,1,1.546-1.391,3.94,3.94,0,0,1,2.053-.541h12.16a3.882,3.882,0,0,1,1.947.608,5.387,5.387,0,0,1,1.454,1.391,6.464,6.464,0,0,1,.919,1.863A6.807,6.807,0,0,1,211.176,407.209Zm-5.618,3.294a2.819,2.819,0,0,0,1.451-.337,2.685,2.685,0,0,0,.893-.823,2.966,2.966,0,0,0,.441-1.065,5.447,5.447,0,0,0,.118-1.065,5.236,5.236,0,0,0-.118-1.065,2.945,2.945,0,0,0-.441-1.065,2.685,2.685,0,0,0-.893-.823,2.819,2.819,0,0,0-1.451-.337H195.091a2.8,2.8,0,0,0-1.463.337,2.729,2.729,0,0,0-.881.823,2.945,2.945,0,0,0-.441,1.065,4.986,4.986,0,0,0,0,2.131,2.945,2.945,0,0,0,.441,1.065,2.76,2.76,0,0,0,.881.823,2.8,2.8,0,0,0,1.463.337Z" transform="translate(-167.269 -401.294)"/>
        <path id="Path_5" data-name="Path 5" class="cls-2" d="M133.439,410.524H117.988a2.8,2.8,0,0,1-1.463-.337,2.728,2.728,0,0,1-.881-.824,2.966,2.966,0,0,1-.441-1.065,4.985,4.985,0,0,1,0-2.131,2.945,2.945,0,0,1,.441-1.065,2.728,2.728,0,0,1,.881-.824,2.8,2.8,0,0,1,1.463-.337h15.451V401.35H117.277a3.94,3.94,0,0,0-2.053.541,5.322,5.322,0,0,0-1.546,1.391,6.355,6.355,0,0,0-.973,1.889,6.559,6.559,0,0,0-.014,4.089,6.539,6.539,0,0,0,.919,1.863,5.345,5.345,0,0,0,1.454,1.391,3.882,3.882,0,0,0,1.947.608h16.43Z" transform="translate(-112.37 -401.315)"/>
        <path id="Path_6" data-name="Path 6" class="cls-2" d="M521.563,407.209a6.731,6.731,0,0,1-.334,2.065,6.322,6.322,0,0,1-.973,1.889,5.322,5.322,0,0,1-1.546,1.391,3.939,3.939,0,0,1-2.053.538H504.5a3.854,3.854,0,0,1-1.947-.608,5.346,5.346,0,0,1-1.454-1.391,6.464,6.464,0,0,1-.919-1.863,6.559,6.559,0,0,1,.014-4.089,6.356,6.356,0,0,1,.973-1.889,5.323,5.323,0,0,1,1.546-1.391,3.94,3.94,0,0,1,2.053-.541h12.16a3.882,3.882,0,0,1,1.947.608,5.388,5.388,0,0,1,1.454,1.391,6.463,6.463,0,0,1,.919,1.863A6.9,6.9,0,0,1,521.563,407.209Zm-5.618,3.294a2.819,2.819,0,0,0,1.451-.337,2.686,2.686,0,0,0,.893-.823,2.966,2.966,0,0,0,.44-1.065,5.442,5.442,0,0,0,.118-1.065,5.231,5.231,0,0,0-.118-1.065,2.945,2.945,0,0,0-.44-1.065,2.686,2.686,0,0,0-.893-.823,2.819,2.819,0,0,0-1.451-.337H505.478a2.8,2.8,0,0,0-1.463.337,2.729,2.729,0,0,0-.881.823,2.945,2.945,0,0,0-.441,1.065,4.985,4.985,0,0,0,0,2.131,2.946,2.946,0,0,0,.441,1.065,2.76,2.76,0,0,0,.881.823,2.8,2.8,0,0,0,1.463.337Z" transform="translate(-388.282 -401.294)"/>
        <path id="Path_7" data-name="Path 7" class="cls-2" d="M355.938,409.768a3.218,3.218,0,0,1-.42.452.74.74,0,0,1-1.1,0,5.388,5.388,0,0,1-.446-.452l-6.329-8.538H344.59l7.795,10.53a3.25,3.25,0,0,0,1.137.933,3.272,3.272,0,0,0,2.966-.037,3.58,3.58,0,0,0,1.163-.97l7.648-10.453h-3.052Z" transform="translate(-277.722 -401.23)"/>
        <path id="Path_8" data-name="Path 8" class="cls-2" d="M288.968,405.048a6.323,6.323,0,0,0-.973-1.889,5.322,5.322,0,0,0-1.546-1.391,3.938,3.938,0,0,0-2.053-.538l-16.825.006v2.6l11.069-.012v0h5.2a2.974,2.974,0,0,1,1.494.337,2.763,2.763,0,0,1,.921.824,2.916,2.916,0,0,1,.452,1.065,4.753,4.753,0,0,1,0,2.131,2.916,2.916,0,0,1-.452,1.065,2.765,2.765,0,0,1-.921.824,2.974,2.974,0,0,1-1.494.337H267.57v2.592h17.093a3.854,3.854,0,0,0,1.947-.608,5.345,5.345,0,0,0,1.454-1.391,6.547,6.547,0,0,0,.921-1.863,6.774,6.774,0,0,0,.32-2.024A6.843,6.843,0,0,0,288.968,405.048Z" transform="translate(-222.88 -401.23)"/>
        <path id="Path_9" data-name="Path 9" class="cls-2" d="M444.04,403.822V401.23H425.6a1.609,1.609,0,0,0-1.61,1.61v8.552A1.609,1.609,0,0,0,425.6,413h18.44V410.41h-17.4v-2h17.4V405.82h-17.4v-2Z" transform="translate(-334.259 -401.23)"/>
      </g>
      <g id="Group_3" data-name="Group 3" transform="translate(0.187 16.252)">
        <path id="Path_10" data-name="Path 10" class="cls-2" d="M115.923,458.868h-.484a.89.89,0,0,0-.216-.527.99.99,0,0,0-.737-.245,1.115,1.115,0,0,0-.57.127.553.553,0,0,0-.282.5.417.417,0,0,0,.2.389,3.328,3.328,0,0,0,.829.253,5.942,5.942,0,0,1,.608.153,1.285,1.285,0,0,1,.613.406.879.879,0,0,1,.181.559,1.036,1.036,0,0,1-.426.864,1.672,1.672,0,0,1-1.051.288,1.962,1.962,0,0,1-.962-.222,1.183,1.183,0,0,1-.608-1.117h.484a.872.872,0,0,0,.19.573,1.168,1.168,0,0,0,.93.34,1.09,1.09,0,0,0,.7-.193.609.609,0,0,0,.236-.5.5.5,0,0,0-.144-.371,1.264,1.264,0,0,0-.5-.248c-.063-.017-.216-.055-.449-.109-.351-.083-.564-.135-.633-.158a1.076,1.076,0,0,1-.5-.314.868.868,0,0,1-.181-.564.978.978,0,0,1,.383-.812,1.519,1.519,0,0,1,.959-.276,1.364,1.364,0,0,1,1.255.564A1.191,1.191,0,0,1,115.923,458.868Z" transform="translate(-113.02 -457.67)"/>
        <path id="Path_11" data-name="Path 11" class="cls-2" d="M146.484,457.953l-1.463,2.243v1.555h-.5V460.2l-1.48-2.243h.6l.9,1.417c.107.167.187.305.248.412.063-.118.141-.251.233-.4l.89-1.431h.573v0Z" transform="translate(-134.396 -457.869)"/>
        <path id="Path_12" data-name="Path 12" class="cls-2" d="M177.023,458.868h-.484a.89.89,0,0,0-.216-.527.99.99,0,0,0-.737-.245,1.115,1.115,0,0,0-.57.127.553.553,0,0,0-.282.5.417.417,0,0,0,.2.389,3.328,3.328,0,0,0,.829.253,5.941,5.941,0,0,1,.608.153,1.285,1.285,0,0,1,.613.406.879.879,0,0,1,.181.559,1.036,1.036,0,0,1-.426.864,1.672,1.672,0,0,1-1.051.288,1.962,1.962,0,0,1-.962-.222,1.183,1.183,0,0,1-.608-1.117h.484a.872.872,0,0,0,.19.573,1.168,1.168,0,0,0,.93.34,1.09,1.09,0,0,0,.7-.193.609.609,0,0,0,.236-.5.5.5,0,0,0-.144-.371,1.264,1.264,0,0,0-.5-.248c-.063-.017-.216-.055-.449-.109-.351-.083-.564-.135-.633-.158a1.076,1.076,0,0,1-.5-.314.868.868,0,0,1-.181-.564.979.979,0,0,1,.383-.812,1.519,1.519,0,0,1,.959-.276,1.364,1.364,0,0,1,1.255.564A1.245,1.245,0,0,1,177.023,458.868Z" transform="translate(-156.526 -457.67)"/>
        <path id="Path_13" data-name="Path 13" class="cls-2" d="M207.665,457.953v.438h-1.279v3.36h-.5v-3.363H204.61v-.438l3.055,0Z" transform="translate(-178.237 -457.869)"/>
        <path id="Path_14" data-name="Path 14" class="cls-2" d="M238.479,457.96v.438h-2.128V459.6h1.99v.4h-1.99v1.313h2.157v.438H235.85v-3.8Z" transform="translate(-200.481 -457.876)"/>
        <path id="Path_15" data-name="Path 15" class="cls-2" d="M270.025,457.96v3.8h-.484l.009-1.7q0-.95.06-1.687l-.055.15-.173.492-.118.317-.9,2.43h-.438l-.947-2.4a9.991,9.991,0,0,1-.328-.953c.035.541.052,1.088.055,1.636l.009,1.719h-.484v-3.8h.685l.89,2.315c.158.409.274.731.343.962.084-.259.2-.576.331-.953l.852-2.324Z" transform="translate(-222.113 -457.876)"/>
        <path id="Path_16" data-name="Path 16" class="cls-2" d="M303.133,458.868h-.484a.89.89,0,0,0-.216-.527.99.99,0,0,0-.737-.245,1.115,1.115,0,0,0-.57.127.553.553,0,0,0-.282.5.417.417,0,0,0,.2.389,3.329,3.329,0,0,0,.829.253,5.937,5.937,0,0,1,.608.153,1.285,1.285,0,0,1,.613.406.879.879,0,0,1,.181.559,1.036,1.036,0,0,1-.426.864,1.672,1.672,0,0,1-1.051.288,1.962,1.962,0,0,1-.962-.222,1.183,1.183,0,0,1-.608-1.117h.484a.872.872,0,0,0,.19.573,1.168,1.168,0,0,0,.93.34,1.09,1.09,0,0,0,.7-.193.609.609,0,0,0,.236-.5.5.5,0,0,0-.144-.371,1.264,1.264,0,0,0-.5-.248c-.063-.017-.216-.055-.449-.109-.351-.083-.564-.135-.634-.158a1.076,1.076,0,0,1-.5-.314.867.867,0,0,1-.181-.564.978.978,0,0,1,.383-.812,1.519,1.519,0,0,1,.959-.276,1.364,1.364,0,0,1,1.255.564A1.191,1.191,0,0,1,303.133,458.868Z" transform="translate(-246.323 -457.67)"/>
        <path id="Path_17" data-name="Path 17" class="cls-2" d="M353.79,457.96h1.529a1.94,1.94,0,0,1,.809.127.879.879,0,0,1,.389.377.9.9,0,0,1,.115.446.84.84,0,0,1-.262.622.815.815,0,0,1-.3.187,1.1,1.1,0,0,1,.328.138.9.9,0,0,1,.4.789,1.049,1.049,0,0,1-.824,1.074,1.924,1.924,0,0,1-.42.037H353.79v-3.8Zm.5.438v1.183h.9a2.143,2.143,0,0,0,.55-.052.5.5,0,0,0,.314-.253.6.6,0,0,0,.069-.291.513.513,0,0,0-.346-.538,1.948,1.948,0,0,0-.538-.049Zm0,1.587v1.336h1a1.729,1.729,0,0,0,.694-.092.577.577,0,0,0,.308-.567.6.6,0,0,0-.409-.616,2.328,2.328,0,0,0-.677-.063h-.919Z" transform="translate(-284.46 -457.876)"/>
        <path id="Path_18" data-name="Path 18" class="cls-2" d="M388.248,457.96v2.214a2.842,2.842,0,0,1-.063.726,1.32,1.32,0,0,1-1.451.944,1.737,1.737,0,0,1-.991-.242,1.206,1.206,0,0,1-.5-.769,3.517,3.517,0,0,1-.049-.665V457.96h.5v2.22a3.638,3.638,0,0,0,.026.515c.084.481.423.723,1.022.723a.9.9,0,0,0,.864-.374,1.269,1.269,0,0,0,.132-.513c.006-.083.009-.2.009-.351v-2.22Z" transform="translate(-306.818 -457.876)"/>
        <path id="Path_19" data-name="Path 19" class="cls-2" d="M417.961,457.96v3.8h-.5v-3.8Z" transform="translate(-329.796 -457.876)"/>
        <path id="Path_20" data-name="Path 20" class="cls-2" d="M443.577,461.33v.438H441.06v-3.8h.5v3.36Z" transform="translate(-346.601 -457.884)"/>
        <path id="Path_21" data-name="Path 21" class="cls-2" d="M470.513,457.96h1.362a2.3,2.3,0,0,1,.743.1,1.407,1.407,0,0,1,.582.395,1.9,1.9,0,0,1,.438,1.327,2.138,2.138,0,0,1-.533,1.558,1.34,1.34,0,0,1-.688.383,2.47,2.47,0,0,1-.487.037h-1.42v-3.8Zm.5.438v2.926h.821a2.019,2.019,0,0,0,.593-.066.965.965,0,0,0,.576-.6,2.267,2.267,0,0,0,.132-.849,1.475,1.475,0,0,0-.371-1.1.954.954,0,0,0-.464-.262,1.864,1.864,0,0,0-.412-.043Z" transform="translate(-367.57 -457.876)"/>
        <path id="Path_22" data-name="Path 22" class="cls-2" d="M505.229,457.96v.438H503.1V459.6h1.99v.4H503.1v1.313h2.157v.438H502.6v-3.8Z" transform="translate(-390.42 -457.876)"/>
        <path id="Path_23" data-name="Path 23" class="cls-2" d="M532.93,457.96h1.736a1.39,1.39,0,0,1,.746.167,1.052,1.052,0,0,1,.181,1.584,1,1,0,0,1-.369.219.621.621,0,0,1,.418.271.894.894,0,0,1,.135.415c.009.052.023.213.046.484a1.217,1.217,0,0,0,.147.6l.049.055h-.576a.455.455,0,0,1-.063-.153,4.505,4.505,0,0,1-.052-.593c-.02-.409-.118-.671-.288-.783a1.168,1.168,0,0,0-.608-.115h-1v1.644h-.5v-3.8Zm.5.438v1.313h.945a2.591,2.591,0,0,0,.51-.037.572.572,0,0,0,.366-.225.663.663,0,0,0,.115-.409.612.612,0,0,0-.178-.464.6.6,0,0,0-.343-.153,1.969,1.969,0,0,0-.34-.026Z" transform="translate(-412.016 -457.876)"/>
        <path id="Path_24" data-name="Path 24" class="cls-2" d="M566.883,458.868H566.4a.89.89,0,0,0-.216-.527.99.99,0,0,0-.737-.245,1.115,1.115,0,0,0-.57.127.553.553,0,0,0-.282.5.417.417,0,0,0,.2.389,3.327,3.327,0,0,0,.829.253,5.942,5.942,0,0,1,.608.153,1.284,1.284,0,0,1,.613.406.879.879,0,0,1,.182.559,1.036,1.036,0,0,1-.426.864,1.672,1.672,0,0,1-1.051.288,1.962,1.962,0,0,1-.962-.222,1.183,1.183,0,0,1-.608-1.117h.484a.872.872,0,0,0,.19.573,1.168,1.168,0,0,0,.93.34,1.09,1.09,0,0,0,.7-.193.609.609,0,0,0,.236-.5.5.5,0,0,0-.144-.371,1.264,1.264,0,0,0-.5-.248c-.063-.017-.216-.055-.449-.109-.351-.083-.565-.135-.634-.158a1.077,1.077,0,0,1-.5-.314.868.868,0,0,1-.181-.564.979.979,0,0,1,.383-.812,1.519,1.519,0,0,1,.959-.276,1.364,1.364,0,0,1,1.255.564A1.245,1.245,0,0,1,566.883,458.868Z" transform="translate(-434.126 -457.67)"/>
      </g>
    </g>
  </g>
</svg>
