<?xml version="1.0" encoding="UTF-8"?>
<svg id="Layer_1" data-name="Layer 1" xmlns="http://www.w3.org/2000/svg" xmlns:xlink="http://www.w3.org/1999/xlink" viewBox="0 0 300 55.06">
  <defs>
    <style>
      .cls-1 {
        fill: url(#linear-gradient);
      }

      .cls-1, .cls-2 {
        fill-rule: evenodd;
      }

      .cls-1, .cls-2, .cls-3 {
        stroke-width: 0px;
      }

      .cls-2 {
        fill: url(#linear-gradient-2);
      }

      .cls-3 {
        fill: #fff;
      }
    </style>
    <linearGradient id="linear-gradient" x1="7.49" y1="154.39" x2="8.46" y2="156.27" gradientTransform="translate(-178.44 2620.14) scale(25.95 -16.71)" gradientUnits="userSpaceOnUse">
      <stop offset="0" stop-color="#fff" stop-opacity="0"/>
      <stop offset=".38" stop-color="#efefef"/>
      <stop offset=".76" stop-color="#adadad"/>
      <stop offset="1" stop-color="#6e6e6e"/>
    </linearGradient>
    <linearGradient id="linear-gradient-2" x1="6.82" y1="154.62" x2="7.8" y2="156.5" gradientTransform="translate(-183.74 2615.76) scale(28.74 -16.71)" xlink:href="#linear-gradient"/>
  </defs>
  <g id="codveo-logo">
    <path id="Path_1" data-name="Path 1" class="cls-1" d="m22.01,39.57H4.71l31.38-31.34h17.29l-31.37,31.34Z"/>
    <path id="Path_2" data-name="Path 2" class="cls-2" d="m31.38,0h22.53l-31.38,31.34H0L31.38,0Z"/>
    <g id="Group_1" data-name="Group 1">
      <path id="Path_3" data-name="Path 3" class="cls-3" d="m28.18,37.03c.22,0,.43.06.63.16.2.11.36.27.47.47.11.19.17.41.17.64,0,.22-.06.44-.17.63-.11.2-.27.36-.47.47-.39.22-.87.22-1.26,0-.2-.11-.36-.27-.47-.47-.11-.19-.17-.41-.17-.63,0-.22.06-.44.17-.64.11-.2.27-.36.47-.47.19-.1.41-.16.63-.16Zm0,.25c-.18,0-.35.05-.5.13-.16.09-.29.22-.38.38-.09.16-.14.33-.14.51,0,.18.05.35.14.51.09.16.22.29.38.38.31.18.7.18,1.01,0,.16-.09.29-.22.38-.38.09-.15.14-.33.14-.51,0-.18-.05-.36-.14-.51-.09-.16-.22-.29-.38-.38-.15-.08-.33-.13-.5-.13h0Zm-.57,1.71v-1.34h.71c.07,0,.14.02.21.05.05.03.1.08.12.13.03.06.05.12.05.19,0,.09-.03.18-.1.25-.07.07-.17.12-.27.13.03.01.06.03.09.05.03.03.07.07.09.1.01.01.04.07.1.16l.16.27h-.34l-.11-.22c-.05-.1-.11-.2-.19-.28-.05-.04-.12-.06-.19-.06h-.08v.56h-.26Zm.27-.77h.11c.1,0,.19,0,.29-.02.04-.01.07-.03.09-.07.04-.06.04-.14,0-.2-.02-.03-.06-.05-.09-.07-.1-.02-.19-.03-.29-.02h-.11v.38Z"/>
    </g>
    <g id="Group_4" data-name="Group 4">
      <g id="Group_2" data-name="Group 2">
        <path id="Path_4" data-name="Path 4" class="cls-3" d="m132.37,28.2c0,1.32-.22,2.62-.63,3.87-.4,1.28-1.02,2.47-1.83,3.54-.79,1.05-1.77,1.94-2.9,2.61-1.17.68-2.5,1.03-3.85,1.01h-22.81c-1.3-.05-2.56-.44-3.65-1.14-1.07-.69-1.99-1.57-2.73-2.61-.76-1.06-1.34-2.24-1.72-3.49-.81-2.49-.8-5.18.03-7.67.41-1.28,1.02-2.47,1.83-3.54.79-1.05,1.77-1.94,2.9-2.61,1.17-.68,2.5-1.04,3.85-1.01h22.81c1.3.05,2.56.44,3.65,1.14,1.06.69,1.99,1.58,2.73,2.61.76,1.06,1.34,2.24,1.72,3.49.39,1.23.59,2.51.6,3.8Zm-10.54,6.18c.95.04,1.89-.18,2.72-.63.67-.38,1.24-.91,1.67-1.54.4-.61.68-1.28.83-2,.14-.66.21-1.33.22-2,0-.67-.08-1.34-.22-2-.14-.71-.42-1.39-.83-2-.43-.64-1.01-1.16-1.67-1.54-.83-.45-1.77-.67-2.72-.63h-19.63c-.96-.04-1.9.18-2.74.63-.66.38-1.22.91-1.65,1.54-.4.6-.69,1.28-.83,2-.29,1.32-.29,2.68,0,4,.14.71.42,1.39.83,2,.43.63.99,1.16,1.65,1.54.84.46,1.79.68,2.74.63h19.63Z"/>
        <path id="Path_5" data-name="Path 5" class="cls-3" d="m89.53,34.38h-28.98c-.96.04-1.9-.18-2.74-.63-.66-.39-1.22-.91-1.65-1.55-.4-.61-.68-1.28-.83-2-.29-1.32-.29-2.68,0-4,.14-.71.42-1.39.83-2,.43-.63.99-1.16,1.65-1.55.84-.46,1.79-.68,2.74-.63h28.98v-4.86h-30.31c-1.35-.02-2.68.33-3.85,1.01-1.13.67-2.11,1.56-2.9,2.61-.8,1.07-1.42,2.27-1.83,3.54-.83,2.49-.83,5.18-.03,7.67.38,1.25.97,2.43,1.72,3.49.74,1.03,1.66,1.92,2.73,2.61,1.09.7,2.35,1.09,3.65,1.14h30.82v-4.87Z"/>
        <path id="Path_6" data-name="Path 6" class="cls-3" d="m300,28.2c0,1.32-.22,2.62-.63,3.87-.4,1.28-1.02,2.47-1.83,3.54-.79,1.05-1.77,1.94-2.9,2.61-1.17.68-2.5,1.03-3.85,1.01h-22.8c-1.3-.05-2.56-.44-3.65-1.14-1.07-.69-1.99-1.57-2.73-2.61-.76-1.06-1.34-2.24-1.72-3.49-.81-2.49-.8-5.18.03-7.67.41-1.28,1.02-2.47,1.82-3.54.79-1.05,1.77-1.94,2.9-2.61,1.17-.68,2.5-1.04,3.85-1.01h22.81c1.3.05,2.56.44,3.65,1.14,1.06.69,1.99,1.58,2.73,2.61.76,1.06,1.34,2.24,1.72,3.49.39,1.23.59,2.51.59,3.8Zm-10.54,6.18c.95.04,1.89-.18,2.72-.63.67-.38,1.24-.91,1.67-1.54.4-.61.68-1.28.83-2,.14-.66.21-1.33.22-2,0-.67-.08-1.34-.22-2-.14-.71-.42-1.39-.83-2-.43-.64-1.01-1.16-1.67-1.54-.83-.45-1.77-.67-2.72-.63h-19.63c-.96-.04-1.9.18-2.74.63-.66.38-1.22.91-1.65,1.54-.4.6-.69,1.28-.83,2-.29,1.32-.29,2.68,0,4,.14.71.42,1.39.83,2,.43.63.99,1.16,1.65,1.54.84.46,1.79.68,2.74.63h19.63Z"/>
        <path id="Path_7" data-name="Path 7" class="cls-3" d="m196.72,33.12c-.23.31-.5.59-.79.85-.51.57-1.39.62-1.96.1-.04-.03-.07-.07-.1-.1-.3-.27-.57-.55-.84-.85l-11.87-16.01h-5.73l14.62,19.75c.57.74,1.3,1.34,2.13,1.75,1.76.87,3.83.84,5.56-.07.85-.44,1.59-1.06,2.18-1.82l14.34-19.61h-5.72l-11.83,16.01Z"/>
        <path id="Path_8" data-name="Path 8" class="cls-3" d="m173.97,24.27c-.4-1.28-1.02-2.47-1.82-3.54-.79-1.05-1.77-1.94-2.9-2.61-1.17-.68-2.5-1.03-3.85-1.01h-31.56v4.89l20.76-.02h9.75c.97-.04,1.94.18,2.8.63.69.38,1.28.91,1.73,1.55.41.6.7,1.28.85,2,.3,1.32.3,2.68,0,4-.15.72-.43,1.39-.85,2-.45.64-1.04,1.17-1.73,1.55-.86.45-1.83.67-2.8.63h-30.52v4.86h32.06c1.3-.05,2.56-.44,3.65-1.14,1.07-.69,1.99-1.57,2.73-2.61.76-1.07,1.34-2.25,1.73-3.49.39-1.23.59-2.51.6-3.8-.01-1.32-.22-2.62-.63-3.87Z"/>
        <path id="Path_9" data-name="Path 9" class="cls-3" d="m255.92,21.97v-4.86h-34.59c-1.67,0-3.02,1.35-3.02,3.02h0v16.04c0,1.67,1.35,3.02,3.02,3.02h34.59v-4.86h-32.64v-3.75h32.64v-4.86h-32.64v-3.75h32.64Z"/>
      </g>
      <g id="Group_3" data-name="Group 3">
        <path id="Path_10" data-name="Path 10" class="cls-3" d="m55.81,49.84h-.91c-.02-.36-.17-.71-.41-.99-.38-.34-.88-.5-1.38-.46-.37-.02-.74.07-1.07.24-.34.19-.54.55-.53.94-.02.29.12.58.38.73.5.23,1.02.38,1.55.47.38.08.77.17,1.14.29.45.14.85.4,1.15.76.23.3.35.67.34,1.05.02.64-.28,1.24-.8,1.62-.58.4-1.27.59-1.97.54-.63.02-1.25-.13-1.8-.42-.76-.42-1.2-1.23-1.14-2.1h.91c-.01.39.11.77.36,1.07.46.46,1.1.69,1.74.64.47.03.93-.09,1.31-.36.29-.22.45-.57.44-.94.01-.26-.09-.51-.27-.7-.27-.22-.59-.38-.94-.47-.12-.03-.41-.1-.84-.2-.66-.16-1.06-.25-1.19-.3-.36-.11-.69-.31-.94-.59-.23-.3-.35-.68-.34-1.06-.02-.59.25-1.16.72-1.52.52-.37,1.16-.55,1.8-.52.92-.1,1.82.31,2.35,1.06.22.36.33.78.33,1.2Z"/>
        <path id="Path_11" data-name="Path 11" class="cls-3" d="m73.04,47.75l-2.74,4.21v2.92h-.94v-2.91l-2.78-4.21h1.13l1.69,2.66c.2.31.35.57.47.77.12-.22.26-.47.44-.75l1.67-2.68h1.07,0Z"/>
        <path id="Path_12" data-name="Path 12" class="cls-3" d="m88.81,49.84h-.91c-.02-.36-.17-.71-.41-.99-.38-.34-.88-.5-1.38-.46-.37-.02-.74.07-1.07.24-.34.19-.54.55-.53.94-.02.29.12.58.38.73.5.23,1.02.38,1.55.47.38.08.77.17,1.14.29.45.14.85.4,1.15.76.23.3.35.67.34,1.05.02.64-.28,1.24-.8,1.62-.58.4-1.27.59-1.97.54-.63.02-1.25-.13-1.8-.42-.76-.42-1.2-1.23-1.14-2.1h.91c-.01.39.11.77.36,1.07.46.46,1.1.69,1.74.64.47.03.93-.09,1.31-.36.29-.22.45-.57.44-.94.01-.26-.09-.51-.27-.7-.27-.22-.59-.38-.94-.47-.12-.03-.41-.1-.84-.2-.66-.16-1.06-.25-1.19-.3-.36-.11-.69-.31-.94-.59-.23-.3-.35-.68-.34-1.06-.02-.59.25-1.16.72-1.52.52-.37,1.16-.55,1.8-.52.92-.1,1.82.31,2.35,1.06.22.36.33.78.33,1.2Z"/>
        <path id="Path_13" data-name="Path 13" class="cls-3" d="m105.56,47.75v.82h-2.4v6.3h-.94v-6.31h-2.39v-.82h5.73Z"/>
        <path id="Path_14" data-name="Path 14" class="cls-3" d="m121.63,47.75v.82h-3.99v2.25h3.73v.75h-3.73v2.46h4.05v.82h-4.99v-7.13l4.93.02Z"/>
        <path id="Path_15" data-name="Path 15" class="cls-3" d="m140.23,47.75v7.13h-.91l.02-3.19c0-1.19.04-2.24.11-3.16l-.1.28-.32.92-.22.59-1.69,4.56h-.82l-1.78-4.5c-.24-.59-.44-1.18-.62-1.79.07,1.01.1,2.04.1,3.07l.02,3.22h-.91v-7.13h1.28l1.67,4.34c.3.77.51,1.37.64,1.8.16-.49.38-1.08.62-1.79l1.6-4.36h1.3Z"/>
        <path id="Path_16" data-name="Path 16" class="cls-3" d="m156.92,49.84h-.91c-.02-.36-.17-.71-.41-.99-.38-.34-.88-.5-1.38-.46-.37-.02-.74.07-1.07.24-.34.19-.54.55-.53.94-.02.29.12.58.38.73.5.23,1.02.38,1.55.47.38.08.77.17,1.14.29.45.14.85.4,1.15.76.23.3.35.67.34,1.05.02.64-.28,1.24-.8,1.62-.58.4-1.27.59-1.97.54-.63.02-1.25-.13-1.8-.42-.76-.42-1.2-1.23-1.14-2.1h.91c-.01.39.11.77.36,1.07.46.46,1.1.69,1.74.64.47.03.93-.09,1.31-.36.29-.22.45-.57.44-.94.01-.26-.09-.51-.27-.7-.27-.22-.59-.38-.94-.47-.12-.03-.41-.1-.84-.2-.66-.16-1.06-.25-1.19-.3-.36-.11-.69-.31-.94-.59-.23-.3-.35-.68-.34-1.06-.02-.59.25-1.16.72-1.52.52-.37,1.16-.55,1.8-.52.92-.1,1.82.31,2.35,1.06.22.36.34.78.33,1.2Z"/>
        <path id="Path_17" data-name="Path 17" class="cls-3" d="m180.4,47.75h2.87c.52-.03,1.03.05,1.52.24.31.15.57.4.73.71.14.26.22.54.22.84,0,.44-.17.86-.49,1.17-.16.16-.35.28-.56.35.22.05.43.14.62.26.49.33.78.89.75,1.48.04.96-.61,1.81-1.55,2.01-.26.05-.52.08-.79.07h-3.31v-7.13h0Zm.94.82v2.22h1.69c.35.01.69-.02,1.03-.1.25-.07.47-.24.59-.47.09-.17.13-.36.13-.55.05-.45-.22-.87-.65-1.01-.33-.08-.67-.11-1.01-.09h-1.78Zm0,2.98v2.51h1.88c.44.03.88-.03,1.3-.17.39-.2.62-.62.58-1.06.04-.52-.28-.99-.77-1.16-.42-.1-.84-.14-1.27-.12h-1.72,0Z"/>
        <path id="Path_18" data-name="Path 18" class="cls-3" d="m203.1,47.75v4.15c.02.46-.02.91-.12,1.36-.34,1.19-1.5,1.94-2.72,1.77-.65.04-1.3-.12-1.86-.45-.49-.34-.83-.86-.94-1.44-.07-.41-.1-.83-.09-1.25v-4.14h.94v4.16c0,.32,0,.65.05.97.16.9.79,1.36,1.92,1.36.63.09,1.26-.18,1.62-.7.15-.3.23-.63.25-.96.01-.16.02-.38.02-.66v-4.16h.94Z"/>
        <path id="Path_19" data-name="Path 19" class="cls-3" d="m215.73,47.75v7.13h-.94v-7.13h.94Z"/>
        <path id="Path_20" data-name="Path 20" class="cls-3" d="m232.26,54.06v.82h-4.72v-7.13h.94v6.3h3.78Z"/>
        <path id="Path_21" data-name="Path 21" class="cls-3" d="m243.45,47.75h2.55c.47-.01.94.05,1.39.19.42.15.8.41,1.09.74.58.7.87,1.59.82,2.49.07,1.07-.29,2.12-1,2.92-.35.36-.8.61-1.29.72-.3.05-.61.08-.91.07h-2.66v-7.13h0Zm.94.82v5.49h1.54c.37.01.75-.03,1.11-.12.51-.19.91-.61,1.08-1.13.18-.51.27-1.05.25-1.59.06-.75-.19-1.5-.7-2.06-.24-.24-.54-.41-.87-.49-.25-.06-.51-.08-.77-.08h-1.64Z"/>
        <path id="Path_22" data-name="Path 22" class="cls-3" d="m265.7,47.75v.82h-3.99v2.25h3.73v.75h-3.73v2.46h4.05v.82h-4.98v-7.13l4.93.02Z"/>
        <path id="Path_23" data-name="Path 23" class="cls-3" d="m277.15,47.75h3.26c.49-.03.97.08,1.4.31.9.61,1.13,1.84.52,2.74-.06.08-.12.16-.18.23-.2.19-.43.33-.69.41.32.05.61.24.78.51.15.23.23.5.25.78.02.1.04.4.09.91,0,.39.09.78.28,1.13l.09.1h-1.08c-.06-.09-.1-.18-.12-.29-.06-.37-.09-.74-.1-1.11-.04-.77-.22-1.26-.54-1.47-.35-.17-.75-.25-1.14-.22h-1.88v3.08h-.94v-7.13h0Zm.94.82v2.46h1.77c.32,0,.64-.01.96-.07.27-.05.52-.2.69-.42.15-.23.23-.49.22-.77.02-.32-.1-.64-.33-.87-.18-.16-.4-.26-.64-.29-.21-.03-.42-.05-.64-.05h-2.02Z"/>
        <path id="Path_24" data-name="Path 24" class="cls-3" d="m299.37,49.84h-.91c-.02-.36-.17-.71-.41-.99-.38-.34-.88-.5-1.38-.46-.37-.02-.74.07-1.07.24-.34.19-.54.55-.53.94-.02.29.12.58.38.73.5.23,1.02.38,1.55.47.38.08.77.17,1.14.29.45.14.85.4,1.15.76.23.3.35.67.34,1.05.02.64-.28,1.24-.8,1.62-.58.4-1.27.59-1.97.54-.63.02-1.25-.13-1.8-.42-.76-.42-1.2-1.23-1.14-2.1h.91c-.01.39.11.77.36,1.07.46.46,1.1.69,1.74.64.47.03.93-.09,1.31-.36.29-.22.45-.57.44-.94.01-.26-.09-.51-.27-.7-.27-.22-.59-.38-.94-.47-.12-.03-.41-.1-.84-.2-.66-.16-1.06-.25-1.19-.3-.36-.11-.69-.31-.94-.59-.23-.3-.35-.68-.34-1.06-.02-.59.25-1.16.72-1.52.52-.37,1.16-.55,1.8-.52.92-.1,1.82.31,2.35,1.06.22.36.33.78.33,1.2Z"/>
      </g>
    </g>
  </g>
</svg>